<svg width="584" height="164" viewBox="0 0 584 164" fill="none" xmlns="http://www.w3.org/2000/svg">
<path d="M0.142045 80L12.2159 7.27273H64.6307L61.9318 23.1818H29.2614L27.2727 35.6818H57.2443L54.5455 51.5909H24.5739L22.5852 64.0909H55.1136L52.4148 80H0.142045ZM88.6275 25.4545L93.7411 42.358L104.963 25.4545H124.423L105.247 52.7273L116.042 80H96.7241L90.332 62.6705L78.5423 80H58.94L78.9684 52.7273L69.0252 25.4545H88.6275ZM119.034 100.455L131.605 25.4545H151.065L149.503 34.9716H149.929C150.923 33.125 152.225 31.4323 153.835 29.8935C155.469 28.331 157.386 27.0881 159.588 26.1648C161.813 25.2178 164.276 24.7443 166.974 24.7443C170.573 24.7443 173.828 25.7031 176.74 27.6207C179.652 29.5384 181.795 32.5568 183.168 36.6761C184.541 40.7955 184.683 46.1458 183.594 52.7273C182.552 59.0246 180.694 64.2448 178.018 68.3878C175.367 72.5308 172.242 75.6203 168.643 77.6562C165.069 79.6922 161.34 80.7102 157.457 80.7102C154.901 80.7102 152.687 80.2959 150.817 79.4673C148.946 78.6151 147.443 77.4669 146.307 76.0227C145.17 74.5549 144.389 72.8977 143.963 71.0511H143.537L138.707 100.455H119.034ZM146.236 52.7273C145.81 55.3788 145.774 57.6752 146.129 59.6165C146.508 61.5341 147.254 63.0256 148.366 64.0909C149.503 65.1326 150.971 65.6534 152.77 65.6534C154.569 65.6534 156.179 65.1444 157.599 64.1264C159.02 63.0848 160.227 61.6051 161.222 59.6875C162.216 57.7462 162.95 55.4261 163.423 52.7273C163.849 50.0284 163.885 47.7202 163.53 45.8026C163.175 43.8613 162.453 42.3816 161.364 41.3636C160.275 40.322 158.83 39.8011 157.031 39.8011C155.232 39.8011 153.587 40.322 152.095 41.3636C150.627 42.3816 149.384 43.8613 148.366 45.8026C147.372 47.7202 146.662 50.0284 146.236 52.7273ZM213.237 80.9943C207.413 80.9943 202.583 79.8816 198.748 77.6562C194.913 75.4072 192.214 72.1875 190.652 67.9972C189.089 63.7831 188.805 58.7405 189.799 52.8693C190.746 47.2348 192.699 42.3106 195.659 38.0966C198.642 33.8826 202.394 30.6037 206.916 28.2599C211.461 25.9162 216.551 24.7443 222.186 24.7443C226.305 24.7443 229.915 25.3835 233.017 26.6619C236.142 27.9403 238.687 29.7988 240.652 32.2372C242.617 34.6757 243.942 37.6231 244.629 41.0795C245.339 44.5123 245.339 48.3949 244.629 52.7273L243.919 57.2727H195.197L196.902 46.4773H227.583C227.82 44.9148 227.666 43.5417 227.122 42.358C226.601 41.1506 225.761 40.2154 224.6 39.5526C223.464 38.866 222.091 38.5227 220.481 38.5227C218.871 38.5227 217.356 38.866 215.936 39.5526C214.539 40.2391 213.343 41.1979 212.349 42.429C211.378 43.66 210.727 45.1042 210.396 46.7614L208.265 58.125C207.981 59.8769 208.088 61.4394 208.585 62.8125C209.082 64.1856 209.946 65.2628 211.177 66.044C212.408 66.8253 213.994 67.2159 215.936 67.2159C217.261 67.2159 218.516 67.0384 219.7 66.6832C220.907 66.3045 221.973 65.7599 222.896 65.0497C223.843 64.3158 224.6 63.428 225.169 62.3864H243.066C241.788 66.1742 239.764 69.465 236.994 72.2585C234.248 75.0284 230.862 77.1828 226.838 78.7216C222.837 80.2367 218.303 80.9943 213.237 80.9943ZM272.94 49.3182L267.827 80H248.224L257.315 25.4545H275.923L274.219 35.8239H274.787C276.515 32.3437 279.036 29.633 282.351 27.6918C285.689 25.7268 289.37 24.7443 293.395 24.7443C297.254 24.7443 300.462 25.6203 303.018 27.3722C305.575 29.1241 307.386 31.5388 308.452 34.6165C309.517 37.6941 309.706 41.2216 309.02 45.1989L303.196 80H283.594L288.707 49.3182C289.157 46.6193 288.826 44.5005 287.713 42.9616C286.624 41.4228 284.825 40.6534 282.315 40.6534C280.729 40.6534 279.273 41.0085 277.947 41.7188C276.645 42.4053 275.556 43.3996 274.68 44.7017C273.828 45.9801 273.248 47.5189 272.94 49.3182ZM368.555 43.2102H350.941C351.036 42.0739 350.835 41.1032 350.337 40.2983C349.84 39.4934 349.142 38.8778 348.242 38.4517C347.366 38.0256 346.372 37.8125 345.259 37.8125C343.318 37.8125 341.554 38.2505 339.968 39.1264C338.382 39.9787 337.494 41.1032 337.305 42.5C337.186 43.0445 337.364 43.5535 337.837 44.027C338.311 44.5005 339.554 44.9384 341.566 45.3409L352.362 47.3295C357.759 48.3239 361.689 50.1349 364.151 52.7628C366.637 55.367 367.537 58.8116 366.85 63.0966C366.211 66.8134 364.577 70.0095 361.95 72.6847C359.322 75.3598 355.984 77.4195 351.935 78.8636C347.911 80.2841 343.46 80.9943 338.583 80.9943C329.989 80.9943 323.55 79.2779 319.265 75.8452C315.004 72.4124 313.062 67.9261 313.441 62.3864H332.475C332.522 64.1619 333.114 65.4995 334.251 66.3991C335.411 67.2751 336.95 67.7367 338.867 67.7841C340.951 67.8551 342.773 67.4408 344.336 66.5412C345.898 65.6179 346.774 64.4697 346.964 63.0966C347.035 62.3153 346.692 61.7235 345.934 61.321C345.2 60.9186 343.791 60.5161 341.708 60.1136L332.333 58.4091C326.935 57.4384 323.005 55.4972 320.543 52.5852C318.081 49.6496 317.229 45.9091 317.987 41.3636C318.602 37.7415 320.07 34.6993 322.39 32.2372C324.734 29.7751 327.811 27.9167 331.623 26.6619C335.434 25.3835 339.838 24.7443 344.833 24.7443C353.001 24.7443 359.18 26.3897 363.37 29.6804C367.584 32.9474 369.312 37.4574 368.555 43.2102ZM397.514 80.9943C391.69 80.9943 386.861 79.8816 383.026 77.6562C379.19 75.4072 376.491 72.1875 374.929 67.9972C373.366 63.7831 373.082 58.7405 374.077 52.8693C375.024 47.2348 376.977 42.3106 379.936 38.0966C382.919 33.8826 386.671 30.6037 391.193 28.2599C395.739 25.9162 400.829 24.7443 406.463 24.7443C410.582 24.7443 414.193 25.3835 417.294 26.6619C420.419 27.9403 422.964 29.7988 424.929 32.2372C426.894 34.6757 428.22 37.6231 428.906 41.0795C429.616 44.5123 429.616 48.3949 428.906 52.7273L428.196 57.2727H379.474L381.179 46.4773H411.861C412.098 44.9148 411.944 43.5417 411.399 42.358C410.878 41.1506 410.038 40.2154 408.878 39.5526C407.741 38.866 406.368 38.5227 404.759 38.5227C403.149 38.5227 401.634 38.866 400.213 39.5526C398.816 40.2391 397.621 41.1979 396.626 42.429C395.656 43.66 395.005 45.1042 394.673 46.7614L392.543 58.125C392.259 59.8769 392.365 61.4394 392.862 62.8125C393.359 64.1856 394.223 65.2628 395.455 66.044C396.686 66.8253 398.272 67.2159 400.213 67.2159C401.539 67.2159 402.794 67.0384 403.977 66.6832C405.185 66.3045 406.25 65.7599 407.173 65.0497C408.12 64.3158 408.878 63.428 409.446 62.3864H427.344C426.065 66.1742 424.041 69.465 421.271 72.2585C418.525 75.0284 415.14 77.1828 411.115 78.7216C407.114 80.2367 402.58 80.9943 397.514 80.9943ZM2.69886 101.182V85.2727H65.9091V101.182H44.0341V158H24.5739V101.182H2.69886ZM67.9599 158V103.455H86.994V113.824H87.5621C88.5565 109.989 90.1308 107.183 92.2852 105.408C94.4632 103.632 97.0082 102.744 99.9201 102.744C100.772 102.744 101.613 102.815 102.441 102.957C103.294 103.076 104.11 103.253 104.892 103.49V120.216C103.921 119.884 102.725 119.636 101.305 119.47C99.8846 119.304 98.6654 119.222 97.6474 119.222C95.7298 119.222 94.0015 119.66 92.4627 120.536C90.9476 121.388 89.752 122.595 88.8761 124.158C88.0001 125.696 87.5621 127.508 87.5621 129.591V158H67.9599ZM123.979 158.852C120.499 158.852 117.421 158.284 114.746 157.148C112.095 155.988 110.011 154.236 108.496 151.892C106.981 149.548 106.223 146.565 106.223 142.943C106.223 139.96 106.732 137.415 107.75 135.308C108.768 133.178 110.189 131.438 112.012 130.088C113.835 128.739 115.953 127.709 118.368 126.999C120.807 126.288 123.435 125.827 126.252 125.614C129.306 125.377 131.756 125.093 133.603 124.761C135.473 124.406 136.822 123.921 137.651 123.305C138.48 122.666 138.894 121.826 138.894 120.784V120.642C138.894 119.222 138.349 118.133 137.26 117.375C136.171 116.617 134.775 116.239 133.07 116.239C131.2 116.239 129.673 116.653 128.489 117.482C127.329 118.286 126.631 119.529 126.394 121.21H108.354C108.591 117.896 109.644 114.842 111.515 112.048C113.408 109.231 116.167 106.982 119.789 105.301C123.411 103.597 127.933 102.744 133.354 102.744C137.26 102.744 140.764 103.206 143.865 104.129C146.967 105.029 149.606 106.295 151.784 107.929C153.962 109.539 155.62 111.433 156.756 113.611C157.916 115.765 158.496 118.109 158.496 120.642V158H140.172V150.33H139.746C138.657 152.366 137.331 154.011 135.769 155.266C134.23 156.52 132.466 157.432 130.478 158C128.513 158.568 126.346 158.852 123.979 158.852ZM130.371 146.494C131.863 146.494 133.259 146.187 134.561 145.571C135.887 144.955 136.964 144.068 137.793 142.908C138.622 141.748 139.036 140.339 139.036 138.682V134.136C138.515 134.349 137.959 134.551 137.367 134.74C136.799 134.929 136.183 135.107 135.52 135.273C134.881 135.438 134.194 135.592 133.461 135.734C132.75 135.876 132.005 136.007 131.223 136.125C129.708 136.362 128.465 136.752 127.495 137.297C126.548 137.818 125.837 138.469 125.364 139.25C124.914 140.008 124.689 140.86 124.689 141.807C124.689 143.322 125.222 144.482 126.287 145.287C127.353 146.092 128.714 146.494 130.371 146.494ZM194.141 158.994C188.222 158.994 183.156 157.822 178.942 155.479C174.728 153.111 171.496 149.821 169.247 145.607C166.998 141.369 165.874 136.456 165.874 130.869C165.874 125.282 166.998 120.382 169.247 116.168C171.496 111.93 174.728 108.639 178.942 106.295C183.156 103.928 188.222 102.744 194.141 102.744C199.491 102.744 204.119 103.715 208.026 105.656C211.955 107.574 214.998 110.296 217.152 113.824C219.306 117.328 220.395 121.447 220.419 126.182H202.237C201.977 123.317 201.148 121.139 199.751 119.648C198.378 118.133 196.603 117.375 194.425 117.375C192.72 117.375 191.229 117.872 189.95 118.866C188.672 119.837 187.678 121.317 186.967 123.305C186.257 125.27 185.902 127.744 185.902 130.727C185.902 133.71 186.257 136.196 186.967 138.185C187.678 140.15 188.672 141.629 189.95 142.624C191.229 143.594 192.72 144.08 194.425 144.08C195.869 144.08 197.147 143.748 198.26 143.085C199.373 142.399 200.272 141.404 200.959 140.102C201.669 138.777 202.095 137.167 202.237 135.273H220.419C220.348 140.079 219.247 144.269 217.116 147.844C214.986 151.395 211.967 154.141 208.061 156.082C204.179 158.024 199.538 158.994 194.141 158.994ZM246.12 145.074L246.262 121.778H248.819L262.029 103.455H284.047L261.887 132.006H256.348L246.12 145.074ZM228.507 158V85.2727H248.109V158H228.507ZM262.172 158L249.672 136.409L262.456 122.489L284.615 158H262.172ZM313.042 158.994C307.218 158.994 302.199 157.882 297.985 155.656C293.794 153.407 290.563 150.187 288.29 145.997C286.041 141.783 284.917 136.741 284.917 130.869C284.917 125.235 286.053 120.311 288.326 116.097C290.598 111.883 293.806 108.604 297.949 106.26C302.092 103.916 306.981 102.744 312.615 102.744C316.735 102.744 320.463 103.384 323.801 104.662C327.14 105.94 329.992 107.799 332.36 110.237C334.727 112.652 336.55 115.588 337.828 119.044C339.107 122.5 339.746 126.395 339.746 130.727V135.273H291.025V124.477H321.706C321.683 122.915 321.28 121.542 320.499 120.358C319.741 119.151 318.712 118.215 317.409 117.553C316.131 116.866 314.675 116.523 313.042 116.523C311.455 116.523 309.999 116.866 308.674 117.553C307.348 118.215 306.283 119.139 305.478 120.322C304.696 121.506 304.282 122.891 304.235 124.477V136.125C304.235 137.877 304.602 139.439 305.336 140.812C306.069 142.186 307.123 143.263 308.496 144.044C309.869 144.825 311.526 145.216 313.468 145.216C314.817 145.216 316.048 145.027 317.161 144.648C318.297 144.269 319.268 143.724 320.073 143.014C320.878 142.28 321.47 141.404 321.848 140.386H339.746C339.131 144.174 337.675 147.465 335.378 150.259C333.082 153.028 330.04 155.183 326.252 156.722C322.488 158.237 318.084 158.994 313.042 158.994ZM347.745 158V103.455H366.779V113.824H367.347C368.342 109.989 369.916 107.183 372.07 105.408C374.248 103.632 376.793 102.744 379.705 102.744C380.558 102.744 381.398 102.815 382.227 102.957C383.079 103.076 383.896 103.253 384.677 103.49V120.216C383.706 119.884 382.511 119.636 381.09 119.47C379.67 119.304 378.451 119.222 377.433 119.222C375.515 119.222 373.787 119.66 372.248 120.536C370.733 121.388 369.537 122.595 368.661 124.158C367.785 125.696 367.347 127.508 367.347 129.591V158H347.745Z" fill="white"/>
<rect x="453" y="32" width="100" height="101" rx="10" fill="#2B9F9F"/>
<path d="M437.995 148.456C437.004 150.116 437.546 152.265 439.206 153.255C440.866 154.246 443.015 153.704 444.005 152.044L437.995 148.456ZM476.59 90.6246L479.596 92.4185L476.59 90.6246ZM485.177 85.75L485.177 89.25L485.177 89.25L485.177 85.75ZM526.724 85.75L526.724 82.25L526.724 82.25L526.724 85.75ZM535.386 80.7472L538.418 82.4963L538.418 82.4963L535.386 80.7472ZM573.38 19.843C572.88 17.9761 570.96 16.8687 569.093 17.3695L538.669 25.5321C536.802 26.033 535.695 27.9525 536.196 29.8195C536.696 31.6865 538.616 32.7939 540.483 32.293L567.527 25.0374L574.782 52.081C575.283 53.948 577.203 55.0554 579.07 54.5545C580.936 54.0536 582.044 52.1341 581.543 50.2671L573.38 19.843ZM444.005 152.044L479.596 92.4185L473.585 88.8307L437.995 148.456L444.005 152.044ZM485.177 89.25L526.724 89.25L526.724 82.25L485.177 82.25L485.177 89.25ZM538.418 82.4963L573.032 22.499L566.968 19.001L532.355 78.9982L538.418 82.4963ZM526.724 89.25C531.549 89.25 536.007 86.6753 538.418 82.4963L532.355 78.9982C531.194 81.0103 529.047 82.25 526.724 82.25L526.724 89.25ZM479.596 92.4185C480.769 90.4534 482.888 89.25 485.177 89.25L485.177 82.25C480.424 82.25 476.021 84.7495 473.585 88.8307L479.596 92.4185Z" fill="#FAFF00"/>
<path d="M435.495 144.706C434.504 146.366 435.046 148.515 436.706 149.505C438.366 150.496 440.515 149.954 441.505 148.294L435.495 144.706ZM474.09 86.8746L477.096 88.6685L474.09 86.8746ZM482.677 82L482.677 85.5L482.677 85.5L482.677 82ZM524.224 82L524.224 78.5L524.224 78.5L524.224 82ZM532.886 76.9972L535.918 78.7463L535.918 78.7463L532.886 76.9972ZM570.88 16.093C570.38 14.2261 568.46 13.1187 566.593 13.6195L536.169 21.7821C534.302 22.283 533.195 24.2025 533.696 26.0695C534.196 27.9365 536.116 29.0439 537.983 28.543L565.027 21.2874L572.282 48.331C572.783 50.198 574.703 51.3054 576.57 50.8045C578.436 50.3036 579.544 48.3841 579.043 46.5171L570.88 16.093ZM441.505 148.294L477.096 88.6685L471.085 85.0807L435.495 144.706L441.505 148.294ZM482.677 85.5L524.224 85.5L524.224 78.5L482.677 78.5L482.677 85.5ZM535.918 78.7463L570.532 18.749L564.468 15.251L529.855 75.2482L535.918 78.7463ZM524.224 85.5C529.049 85.5 533.507 82.9253 535.918 78.7463L529.855 75.2482C528.694 77.2603 526.547 78.5 524.224 78.5L524.224 85.5ZM477.096 88.6685C478.269 86.7034 480.388 85.5 482.677 85.5L482.677 78.5C477.924 78.5 473.521 80.9995 471.085 85.0807L477.096 88.6685Z" fill="#6FB926"/>
<path d="M431.995 140.456C431.004 142.116 431.546 144.265 433.206 145.255C434.866 146.246 437.015 145.704 438.005 144.044L431.995 140.456ZM470.59 82.6246L473.596 84.4185L470.59 82.6246ZM479.177 77.75L479.177 81.25L479.177 81.25L479.177 77.75ZM520.724 77.75L520.724 74.25L520.724 74.25L520.724 77.75ZM529.386 72.7472L532.418 74.4963L532.418 74.4963L529.386 72.7472ZM567.38 11.843C566.88 9.97608 564.96 8.86865 563.093 9.36955L532.669 17.5321C530.802 18.033 529.695 19.9525 530.196 21.8195C530.696 23.6865 532.616 24.7939 534.483 24.293L561.527 17.0374L568.782 44.081C569.283 45.948 571.203 47.0554 573.07 46.5545C574.936 46.0536 576.044 44.1341 575.543 42.2671L567.38 11.843ZM438.005 144.044L473.596 84.4185L467.585 80.8307L431.995 140.456L438.005 144.044ZM479.177 81.25L520.724 81.25L520.724 74.25L479.177 74.25L479.177 81.25ZM532.418 74.4963L567.032 14.499L560.968 11.001L526.355 70.9982L532.418 74.4963ZM520.724 81.25C525.549 81.25 530.007 78.6753 532.418 74.4963L526.355 70.9982C525.194 73.0103 523.047 74.25 520.724 74.25L520.724 81.25ZM473.596 84.4185C474.769 82.4534 476.888 81.25 479.177 81.25L479.177 74.25C474.424 74.25 470.021 76.7495 467.585 80.8307L473.596 84.4185Z" fill="#076E1E"/>
</svg>
